<svg version="1.1" xmlns="http://www.w3.org/2000/svg" viewBox="0 0 963.4586748960223 647.768842177503" width="1926.9173497920447" height="1295.537684355006">
  <!-- svg-source:excalidraw -->
  
  <defs>
    <style class="style-fonts">
      @font-face {
        font-family: "Virgil";
        src: url("https://excalidraw.com/Virgil.woff2");
      }
      @font-face {
        font-family: "Cascadia";
        src: url("https://excalidraw.com/Cascadia.woff2");
      }
    </style>
    
  </defs>
  <rect x="0" y="0" width="963.4586748960223" height="647.768842177503" fill="#ffffff"></rect><g stroke-linecap="round" transform="translate(17.0390625 336.66049557255826) rotate(0 146.40625 147.22265625)"><path d="M32 0 M32 0 C113.52 -0.55, 192.53 -0.21, 260.81 0 M32 0 C92.08 -0.43, 153.33 -1.26, 260.81 0 M260.81 0 C282.1 -1.76, 291.19 8.79, 292.81 32 M260.81 0 C280.4 -2.05, 293.56 8.37, 292.81 32 M292.81 32 C292.58 101.67, 290.43 174.73, 292.81 262.45 M292.81 32 C293.52 88.83, 293.35 146.28, 292.81 262.45 M292.81 262.45 C293.57 281.85, 283.72 294.43, 260.81 294.45 M292.81 262.45 C294.47 284.22, 280.26 295.97, 260.81 294.45 M260.81 294.45 C181.94 291.66, 106.08 291.04, 32 294.45 M260.81 294.45 C176.47 293.54, 92.13 293.43, 32 294.45 M32 294.45 C10.83 294.7, -1.98 282.89, 0 262.45 M32 294.45 C9.31 293.18, 0.83 285.88, 0 262.45 M0 262.45 C0.37 194.24, -1.96 127.2, 0 32 M0 262.45 C-0.25 203.29, -0.9 142.24, 0 32 M0 32 C-0.21 10.04, 9.51 -1.2, 32 0 M0 32 C-1.4 8.75, 11.14 2.04, 32 0" stroke="#1e1e1e" stroke-width="1" fill="none"></path></g><g stroke-linecap="round" transform="translate(502.38081231922865 330.16372957900376) rotate(0 225.53893128839684 153.8025562992496)"><path d="M32 0 M32 0 C146.11 -3.34, 262.65 -2.53, 419.08 0 M32 0 C156.77 2.21, 282.12 2.35, 419.08 0 M419.08 0 C442.15 -1.64, 450.12 9.09, 451.08 32 M419.08 0 C441.18 -1.77, 449.39 11.07, 451.08 32 M451.08 32 C453.03 108.77, 450.8 187.13, 451.08 275.61 M451.08 32 C451.72 103.3, 451.55 173.18, 451.08 275.61 M451.08 275.61 C450.59 298.38, 438.56 308.91, 419.08 307.61 M451.08 275.61 C448.98 295.03, 440.54 309.38, 419.08 307.61 M419.08 307.61 C286.72 306.79, 155.46 306.72, 32 307.61 M419.08 307.61 C325.26 309.98, 231.13 309.65, 32 307.61 M32 307.61 C11.17 308.3, 0.29 296.56, 0 275.61 M32 307.61 C11.54 307.55, 0.61 297.29, 0 275.61 M0 275.61 C-3.17 213.47, -2.3 153.79, 0 32 M0 275.61 C1.52 199.12, 1.16 123.32, 0 32 M0 32 C-0.42 10.62, 9.77 0.2, 32 0 M0 32 C1.48 11.38, 11.08 0, 32 0" stroke="#1e1e1e" stroke-width="1" fill="none"></path></g><g stroke-linecap="round"><g transform="translate(349.339940619858 414.49168027524456) rotate(0 58.38013553917409 -0.2632996606665188)"><path d="M-1.16 0.08 C18.57 -0.14, 98.08 -0.7, 117.92 -0.65 M0.44 -0.92 C20 -1.08, 97.33 -0.03, 116.73 0.41" stroke="#1e1e1e" stroke-width="1" fill="none"></path></g><g transform="translate(349.339940619858 414.49168027524456) rotate(0 58.38013553917409 -0.2632996606665188)"><path d="M88.5 9.43 C94.29 7.08, 103.46 5.56, 116.71 1.59 M87.73 10.97 C99 6.03, 108.8 2.54, 117.03 0.56" stroke="#1e1e1e" stroke-width="1" fill="none"></path></g><g transform="translate(349.339940619858 414.49168027524456) rotate(0 58.38013553917409 -0.2632996606665188)"><path d="M88.85 -11.09 C94.67 -8.03, 103.74 -4.14, 116.71 1.59 M88.08 -9.55 C99.19 -7.34, 108.87 -3.68, 117.03 0.56" stroke="#1e1e1e" stroke-width="1" fill="none"></path></g></g><mask></mask><g transform="translate(10 296.25033932255826) rotate(0 155.40988159179688 12.5)"><text x="0" y="0" font-family="Virgil, Segoe UI Emoji" font-size="20px" fill="#1e1e1e" text-anchor="start" style="white-space: pre;" direction="ltr" dominant-baseline="text-before-edge">Internet Connected Environment</text></g><g transform="translate(642.6793114116317 282.26297385604965) rotate(0 90.11992645263672 12.5)"><text x="0" y="0" font-family="Virgil, Segoe UI Emoji" font-size="20px" fill="#1e1e1e" text-anchor="start" style="white-space: pre;" direction="ltr" dominant-baseline="text-before-edge">Airgap Enviornment</text></g><g stroke-linecap="round" transform="translate(64.07916013901388 10) rotate(0 98.16192770557927 53.96511878364521)"><path d="M26.98 0 M26.98 0 C64.98 -0.2, 104.64 -0.93, 169.34 0 M26.98 0 C72.91 -0.86, 117.79 -1.24, 169.34 0 M169.34 0 C187.08 1.83, 194.83 8.95, 196.32 26.98 M169.34 0 C187.16 1.87, 194.23 8.94, 196.32 26.98 M196.32 26.98 C196.28 44.72, 197.09 60.78, 196.32 80.95 M196.32 26.98 C196.84 45.57, 195.27 66.57, 196.32 80.95 M196.32 80.95 C197.36 99.94, 188.52 107.08, 169.34 107.93 M196.32 80.95 C196.12 97.14, 189.01 109.81, 169.34 107.93 M169.34 107.93 C132.18 107.72, 93.84 109.46, 26.98 107.93 M169.34 107.93 C139.8 106.02, 110.01 107.27, 26.98 107.93 M26.98 107.93 C10.32 106.25, 0.31 100.81, 0 80.95 M26.98 107.93 C9.44 106.45, 1.94 98.66, 0 80.95 M0 80.95 C-2.29 59.26, 0.53 39.01, 0 26.98 M0 80.95 C1.02 64.18, -0.21 48.43, 0 26.98 M0 26.98 C0.7 10.64, 9.2 1.51, 26.98 0 M0 26.98 C-1.6 9.98, 10.32 1.44, 26.98 0" stroke="#1e1e1e" stroke-width="1" fill="none"></path></g><g transform="translate(103.7938766242367 39.27452251061669) rotate(0 61.13994598388669 25)"><text x="0" y="0" font-family="Virgil, Segoe UI Emoji" font-size="20px" fill="#1e1e1e" text-anchor="start" style="white-space: pre;" direction="ltr" dominant-baseline="text-before-edge">Public Image</text><text x="0" y="25" font-family="Virgil, Segoe UI Emoji" font-size="20px" fill="#1e1e1e" text-anchor="start" style="white-space: pre;" direction="ltr" dominant-baseline="text-before-edge">Repos</text></g><g stroke-linecap="round"><g transform="translate(163.31130830443487 138.9529446052747) rotate(0 0.40420382811984723 57.95757759145533)"><path d="M-0.38 -1.05 C-0.58 18.04, -0.97 96.21, -0.96 115.51 M1.63 1.01 C1.8 20.21, 1.89 97.88, 1.44 116.97" stroke="#1e1e1e" stroke-width="1" fill="none"></path></g><g transform="translate(163.31130830443487 138.9529446052747) rotate(0 0.40420382811984723 57.95757759145533)"><path d="M-10.32 87.69 C-5.36 97.91, -3.46 107.61, 1.89 118.61 M-8.79 87.75 C-4.33 98.65, -2.77 106.91, 0.94 116.45" stroke="#1e1e1e" stroke-width="1" fill="none"></path></g><g transform="translate(163.31130830443487 138.9529446052747) rotate(0 0.40420382811984723 57.95757759145533)"><path d="M10.2 87.87 C8.54 97.97, 3.82 107.61, 1.89 118.61 M11.73 87.93 C9.55 98.78, 4.46 106.98, 0.94 116.45" stroke="#1e1e1e" stroke-width="1" fill="none"></path></g></g><mask></mask><g stroke-linecap="round" transform="translate(149.71892695874044 375.23984840414073) rotate(0 62.92360749643319 36.48525950608712)"><path d="M18.24 0 M18.24 0 C47.38 -0.13, 78.48 0.36, 107.6 0 M18.24 0 C37.6 -0.41, 57.94 0.84, 107.6 0 M107.6 0 C118.63 -0.95, 127.03 6.61, 125.85 18.24 M107.6 0 C120.86 -0.18, 125.86 4.35, 125.85 18.24 M125.85 18.24 C127.12 30.73, 124.61 40.59, 125.85 54.73 M125.85 18.24 C125.93 30.31, 125.07 44.65, 125.85 54.73 M125.85 54.73 C127.84 65.79, 121.69 71.97, 107.6 72.97 M125.85 54.73 C125.63 65.21, 117.64 71.4, 107.6 72.97 M107.6 72.97 C87.05 72.8, 62.63 75.74, 18.24 72.97 M107.6 72.97 C76.52 73.53, 46.7 73.41, 18.24 72.97 M18.24 72.97 C5.75 73.41, -0.44 68.73, 0 54.73 M18.24 72.97 C7.79 72.38, -1.09 66.44, 0 54.73 M0 54.73 C-0.87 43.04, 1.8 30.98, 0 18.24 M0 54.73 C-0.16 42.41, 0.39 29.14, 0 18.24 M0 18.24 C1.41 6.9, 6.23 -0.06, 18.24 0 M0 18.24 C0.02 5.87, 6.4 1.48, 18.24 0" stroke="#1e1e1e" stroke-width="1" fill="none"></path></g><g stroke-linecap="round" transform="translate(778.0262245393883 368.7765756519292) rotate(0 62.92360749643319 36.48525950608712)"><path d="M18.24 0 M18.24 0 C43.68 1.27, 73.27 2.06, 107.6 0 M18.24 0 C39.84 0.8, 59.89 1.12, 107.6 0 M107.6 0 C119.36 -0.95, 126.39 8.04, 125.85 18.24 M107.6 0 C120.44 1.67, 125.77 6.54, 125.85 18.24 M125.85 18.24 C124.93 28.92, 126.45 38.97, 125.85 54.73 M125.85 18.24 C126.16 28.58, 125.48 39.61, 125.85 54.73 M125.85 54.73 C126.3 68.59, 121.14 72.3, 107.6 72.97 M125.85 54.73 C125.11 65.67, 120.63 74.73, 107.6 72.97 M107.6 72.97 C82.95 72.17, 54.32 74.58, 18.24 72.97 M107.6 72.97 C89.07 73.77, 69.64 72.85, 18.24 72.97 M18.24 72.97 C7.34 73.43, -1 65.65, 0 54.73 M18.24 72.97 C5.86 71.98, -1.53 64.83, 0 54.73 M0 54.73 C-1.3 47.24, -1.67 38.84, 0 18.24 M0 54.73 C0.27 44.26, -0.06 33.63, 0 18.24 M0 18.24 C-1.65 7, 5.84 -1.94, 18.24 0 M0 18.24 C2.07 6.77, 4.47 -2.02, 18.24 0" stroke="#1e1e1e" stroke-width="1" fill="none"></path></g><g stroke-linecap="round" transform="translate(524.202816258636 374.9684248764888) rotate(0 62.92360749643319 36.48525950608712)"><path d="M18.24 0 M18.24 0 C53.75 0.57, 86.41 -2.28, 107.6 0 M18.24 0 C44.33 -1.03, 69.72 0.16, 107.6 0 M107.6 0 C117.81 0.33, 124.03 5.55, 125.85 18.24 M107.6 0 C121.72 1.14, 126.99 7.05, 125.85 18.24 M125.85 18.24 C125.1 27.73, 127.37 34.19, 125.85 54.73 M125.85 18.24 C125.75 30.19, 126.56 43.22, 125.85 54.73 M125.85 54.73 C127.52 65.7, 119.25 71.63, 107.6 72.97 M125.85 54.73 C125.11 66.11, 120.18 71.06, 107.6 72.97 M107.6 72.97 C85.25 73.66, 63.3 71.56, 18.24 72.97 M107.6 72.97 C75.89 73.54, 45.12 73.3, 18.24 72.97 M18.24 72.97 C4.86 73.72, -1.32 65.83, 0 54.73 M18.24 72.97 C7.11 74.76, 1.86 68.34, 0 54.73 M0 54.73 C-0.53 41.75, 0.18 23.81, 0 18.24 M0 54.73 C-0.19 40.12, -0.18 26.38, 0 18.24 M0 18.24 C-0.41 7.71, 6.59 -0.49, 18.24 0 M0 18.24 C1.2 5.09, 7.25 2.06, 18.24 0" stroke="#1e1e1e" stroke-width="1" fill="none"></path></g><g transform="translate(548.4697760277663 398.4508010110006) rotate(0 35.22996520996094 12.5)"><text x="0" y="0" font-family="Virgil, Segoe UI Emoji" font-size="20px" fill="#1e1e1e" text-anchor="start" style="white-space: pre;" direction="ltr" dominant-baseline="text-before-edge">bastion</text></g><g transform="translate(178.8036148244289 399.2717588290431) rotate(0 35.22996520996094 12.5)"><text x="0" y="0" font-family="Virgil, Segoe UI Emoji" font-size="20px" fill="#1e1e1e" text-anchor="start" style="white-space: pre;" direction="ltr" dominant-baseline="text-before-edge">bastion</text></g><g transform="translate(816.8525119714736 382.11025644783047) rotate(0 28.929977416992188 25)"><text x="0" y="0" font-family="Virgil, Segoe UI Emoji" font-size="20px" fill="#1e1e1e" text-anchor="start" style="white-space: pre;" direction="ltr" dominant-baseline="text-before-edge">Image</text><text x="0" y="25" font-family="Virgil, Segoe UI Emoji" font-size="20px" fill="#1e1e1e" text-anchor="start" style="white-space: pre;" direction="ltr" dominant-baseline="text-before-edge">repo</text></g><g stroke-linecap="round"><g transform="translate(675.1015746552519 406.3856982022001) rotate(0 43.12749253098815 -0.23266801253893732)"><path d="M-0.71 0.1 C13.83 0.14, 72.15 -0.76, 86.97 -0.72 M1.11 -0.9 C15.5 -0.62, 71.4 -0.02, 85.86 0.44" stroke="#1e1e1e" stroke-width="1" fill="none"></path></g><g transform="translate(675.1015746552519 406.3856982022001) rotate(0 43.12749253098815 -0.23266801253893732)"><path d="M57.63 9.62 C64.18 9.12, 73.76 4.55, 86.01 1.33 M57.53 10.39 C64.77 6.93, 72.36 4.35, 85.75 -0.45" stroke="#1e1e1e" stroke-width="1" fill="none"></path></g><g transform="translate(675.1015746552519 406.3856982022001) rotate(0 43.12749253098815 -0.23266801253893732)"><path d="M58.04 -10.89 C64.3 -5.74, 73.76 -4.65, 86.01 1.33 M57.94 -10.13 C64.89 -8.15, 72.38 -5.3, 85.75 -0.45" stroke="#1e1e1e" stroke-width="1" fill="none"></path></g></g><mask></mask><g stroke-linecap="round" transform="translate(531.357370807836 548.0781358799649) rotate(0 62.92360749643319 36.48525950608712)"><path d="M18.24 0 M18.24 0 C41.09 0.76, 62.73 0.5, 107.6 0 M18.24 0 C53 0.13, 87.06 1.17, 107.6 0 M107.6 0 C121.15 -1.36, 125.13 5.07, 125.85 18.24 M107.6 0 C120.09 0.09, 125.68 6.38, 125.85 18.24 M125.85 18.24 C127.75 29.99, 125.09 42.66, 125.85 54.73 M125.85 18.24 C125.29 26.93, 125.4 34.08, 125.85 54.73 M125.85 54.73 C127.06 66.22, 120.59 74.7, 107.6 72.97 M125.85 54.73 C124.97 65.45, 121.63 72.24, 107.6 72.97 M107.6 72.97 C83.28 72.88, 58.54 72.47, 18.24 72.97 M107.6 72.97 C71.91 72.6, 36.88 73.18, 18.24 72.97 M18.24 72.97 C4.67 74.86, 0.66 68, 0 54.73 M18.24 72.97 C5.87 74.17, 1.55 65.48, 0 54.73 M0 54.73 C-0.15 43.81, 1.14 31.83, 0 18.24 M0 54.73 C0.74 44.76, 0.02 34.2, 0 18.24 M0 18.24 C-1.51 5.59, 7.38 -0.94, 18.24 0 M0 18.24 C1.75 3.92, 5.03 -0.72, 18.24 0" stroke="#1e1e1e" stroke-width="1" fill="none"></path></g><g transform="translate(572.5209990562223 572.063395386052) rotate(0 21.759979248046875 12.5)"><text x="21.759979248046875" y="0" font-family="Virgil, Segoe UI Emoji" font-size="20px" fill="#1e1e1e" text-anchor="middle" style="white-space: pre;" direction="ltr" dominant-baseline="text-before-edge">rke2</text></g><g stroke-linecap="round" transform="translate(665.851969751988 547.0721463709123) rotate(0 62.92360749643319 36.48525950608712)"><path d="M18.24 0 M18.24 0 C49.03 -1.4, 79.49 1.54, 107.6 0 M18.24 0 C46.63 0.63, 73.49 0.61, 107.6 0 M107.6 0 C120.99 0.95, 124.46 5.95, 125.85 18.24 M107.6 0 C121.76 -0.73, 127.12 4.71, 125.85 18.24 M125.85 18.24 C127.27 26.36, 124.4 35.24, 125.85 54.73 M125.85 18.24 C127.06 26.83, 126.86 34.57, 125.85 54.73 M125.85 54.73 C126.28 65.18, 121.49 73.51, 107.6 72.97 M125.85 54.73 C127.57 67.18, 119.64 72.28, 107.6 72.97 M107.6 72.97 C84.19 72.35, 59.77 72.58, 18.24 72.97 M107.6 72.97 C88.08 71.41, 67.46 72.71, 18.24 72.97 M18.24 72.97 C6.66 73.56, 1.56 68.83, 0 54.73 M18.24 72.97 C6.41 75.1, 1.21 65.04, 0 54.73 M0 54.73 C1.22 45.54, -0.14 41.81, 0 18.24 M0 54.73 C0.73 46.1, 0.42 38.13, 0 18.24 M0 18.24 C-0.35 6.13, 7.68 1, 18.24 0 M0 18.24 C-1.59 4.15, 7.95 -0.37, 18.24 0" stroke="#1e1e1e" stroke-width="1" fill="none"></path></g><g transform="translate(707.0155980003742 571.0574058769994) rotate(0 21.759979248046875 12.5)"><text x="21.759979248046875" y="0" font-family="Virgil, Segoe UI Emoji" font-size="20px" fill="#1e1e1e" text-anchor="middle" style="white-space: pre;" direction="ltr" dominant-baseline="text-before-edge">rke2</text></g><g stroke-linecap="round" transform="translate(798.620484699979 547.055182400434) rotate(0 62.92360749643319 36.48525950608712)"><path d="M18.24 0 M18.24 0 C48.35 -2.1, 76.52 -2.16, 107.6 0 M18.24 0 C38.11 1.28, 58.69 0.78, 107.6 0 M107.6 0 C118.7 1.16, 124.26 4.66, 125.85 18.24 M107.6 0 C118.36 -2.01, 128.05 3.96, 125.85 18.24 M125.85 18.24 C126.69 31.8, 124.91 40.76, 125.85 54.73 M125.85 18.24 C125.62 27.62, 125.36 36.51, 125.85 54.73 M125.85 54.73 C124.87 65.79, 118.4 71.33, 107.6 72.97 M125.85 54.73 C126.99 69.01, 121.62 75.19, 107.6 72.97 M107.6 72.97 C87.23 71.74, 67.64 70.52, 18.24 72.97 M107.6 72.97 C77.42 71.52, 44.95 72.12, 18.24 72.97 M18.24 72.97 C6.38 72.63, 0.19 65.47, 0 54.73 M18.24 72.97 C5.18 72.37, 1.2 65.81, 0 54.73 M0 54.73 C0.51 44.9, 0.06 36.87, 0 18.24 M0 54.73 C0.68 43.33, 0.85 31.62, 0 18.24 M0 18.24 C0.87 7.61, 4.76 -1.97, 18.24 0 M0 18.24 C-2.2 5.15, 7.67 -0.81, 18.24 0" stroke="#1e1e1e" stroke-width="1" fill="none"></path></g><g transform="translate(839.7841129483654 571.0404419065211) rotate(0 21.759979248046875 12.5)"><text x="21.759979248046875" y="0" font-family="Virgil, Segoe UI Emoji" font-size="20px" fill="#1e1e1e" text-anchor="middle" style="white-space: pre;" direction="ltr" dominant-baseline="text-before-edge">rke2</text></g><g stroke-linecap="round" transform="translate(536.0234417907978 502.6806780378478) rotate(0 191.10972991898774 17.5)"><path d="M8.75 0 M8.75 0 C146.16 -0.59, 285.2 -0.23, 373.47 0 M8.75 0 C122.66 0.56, 237.62 0.21, 373.47 0 M373.47 0 C379.11 -1.18, 382.52 1.72, 382.22 8.75 M373.47 0 C380.3 -2.19, 382.24 5, 382.22 8.75 M382.22 8.75 C381.51 13.78, 381.94 18.94, 382.22 26.25 M382.22 8.75 C381.59 15.12, 382.13 20.85, 382.22 26.25 M382.22 26.25 C382.72 32.23, 379.64 35.05, 373.47 35 M382.22 26.25 C382.58 32.18, 377.07 33.22, 373.47 35 M373.47 35 C299.21 33.94, 221.68 32.1, 8.75 35 M373.47 35 C274.72 34.9, 176 34.79, 8.75 35 M8.75 35 C1.31 36.2, 0.44 33.53, 0 26.25 M8.75 35 C4.92 33.07, 1.79 32.86, 0 26.25 M0 26.25 C-1.49 19.73, 0.73 13.54, 0 8.75 M0 26.25 C0.38 21.79, 0.11 18.15, 0 8.75 M0 8.75 C1.16 4.63, 2.23 1.95, 8.75 0 M0 8.75 C-1.87 2.38, 4.92 -0.67, 8.75 0" stroke="#1e1e1e" stroke-width="1" fill="none"></path></g><g transform="translate(689.283196123848 507.6806780378478) rotate(0 37.8499755859375 12.5)"><text x="37.8499755859375" y="0" font-family="Virgil, Segoe UI Emoji" font-size="20px" fill="#1e1e1e" text-anchor="middle" style="white-space: pre;" direction="ltr" dominant-baseline="text-before-edge">Rancher</text></g><g stroke-linecap="round"><g transform="translate(827.1205429726253 459.3497845157732) rotate(0 -19.939121503724778 8.765122213784053)"><path d="M0.14 0.28 C-6.25 3.05, -32.24 14.19, -38.8 16.95 M-1.24 -0.62 C-7.8 2.27, -34.09 15.08, -40.02 18.15" stroke="#1e1e1e" stroke-width="1" fill="none"></path></g><g transform="translate(827.1205429726253 459.3497845157732) rotate(0 -19.939121503724778 8.765122213784053)"><path d="M-25.04 2.01 C-30.37 5.36, -34.31 11.48, -40.24 16.44 M-26.05 2.14 C-30.67 6.6, -34.86 11.27, -40.96 17.91" stroke="#1e1e1e" stroke-width="1" fill="none"></path></g><g transform="translate(827.1205429726253 459.3497845157732) rotate(0 -19.939121503724778 8.765122213784053)"><path d="M-18.61 14.91 C-25.66 14.87, -31.3 17.61, -40.24 16.44 M-19.61 15.04 C-26.24 15.7, -32.33 16.54, -40.96 17.91" stroke="#1e1e1e" stroke-width="1" fill="none"></path></g></g><mask></mask><g stroke-linecap="round" transform="translate(520.0828774137094 493.07796123342416) rotate(0 208.29816476796861 65.94594764363023)"><path d="M32 0 M32 0 C101.93 0.73, 173.78 -0.75, 384.6 0 M32 0 C120.4 -0.19, 209.93 0.38, 384.6 0 M384.6 0 C404.11 1.3, 416.75 12.44, 416.6 32 M384.6 0 C405.89 -0.9, 415.18 12.71, 416.6 32 M416.6 32 C418.03 48.99, 417.52 61.32, 416.6 99.89 M416.6 32 C415.58 50.4, 416.5 68.84, 416.6 99.89 M416.6 99.89 C414.81 123.06, 404.24 133.38, 384.6 131.89 M416.6 99.89 C418.59 122.83, 407.33 134, 384.6 131.89 M384.6 131.89 C300.19 131.59, 214.44 131.73, 32 131.89 M384.6 131.89 C308.21 132.67, 230.49 132.85, 32 131.89 M32 131.89 C10.27 131.7, -0.88 121.14, 0 99.89 M32 131.89 C9.12 133.74, 0.06 120.99, 0 99.89 M0 99.89 C-0.63 81.28, -0.69 66.75, 0 32 M0 99.89 C-0.68 86.02, -0.3 70.5, 0 32 M0 32 C0.37 9.02, 9.03 0.23, 32 0 M0 32 C0.87 9, 10.67 1.58, 32 0" stroke="#1e1e1e" stroke-width="1" fill="none"></path></g></svg>